<svg xmlns="http://www.w3.org/2000/svg" width="1280" height="720" viewBox="0 0 1280 720">
  <rect width="1280" height="720" fill="#F7F8FA"/>
  <g id="header">
    <text x="72" y="86" font-family="Microsoft YaHei" font-size="38" font-weight="700" fill="#1D2329">整体架构：桌面端到 CLI 的三层通信</text>
    <text x="72" y="122" font-family="Microsoft YaHei" font-size="18" fill="#667085">React WebView 负责体验，Bun Sidecar 负责会话，CLI 子进程负责 AI 与工具执行</text>
  </g>
  <g id="architecture_layers">
    <rect x="118" y="168" width="1044" height="116" rx="8" fill="#FFFFFF" stroke="#D8DEE6"/>
    <text x="148" y="214" font-family="Microsoft YaHei" font-size="25" font-weight="700" fill="#2D628F">Tauri 主进程 + React WebView</text>
    <text x="148" y="252" font-family="Microsoft YaHei" font-size="18" fill="#667085">窗口、原生桥接、桌面 UI、多标签、多会话、权限对话框</text>
    <rect x="118" y="330" width="1044" height="116" rx="8" fill="#FFFFFF" stroke="#D8DEE6"/>
    <text x="148" y="376" font-family="Microsoft YaHei" font-size="25" font-weight="700" fill="#8F482F">Server Sidecar（Bun HTTP + WebSocket）</text>
    <text x="148" y="414" font-family="Microsoft YaHei" font-size="18" fill="#667085">REST API、WebSocket 网关、会话管理、Provider 配置、CLI 子进程代理</text>
    <rect x="118" y="492" width="1044" height="116" rx="8" fill="#FFFFFF" stroke="#D8DEE6"/>
    <text x="148" y="538" font-family="Microsoft YaHei" font-size="25" font-weight="700" fill="#4F6237">CLI 子进程 + 工具运行时</text>
    <text x="148" y="576" font-family="Microsoft YaHei" font-size="18" fill="#667085">AI 对话核心、工具调用、MCP、Agent 编排、Computer Use Python Bridge</text>
  </g>
  <g id="connectors">
    <rect x="560" y="292" width="160" height="30" rx="15" fill="#D9E8F6" stroke="#2D628F"/>
    <text x="640" y="313" text-anchor="middle" font-family="Microsoft YaHei" font-size="16" fill="#183F5D">HTTP + WS</text>
    <line x1="640" y1="284" x2="640" y2="330" stroke="#2D628F" stroke-width="3"/>
    <rect x="560" y="454" width="160" height="30" rx="15" fill="#E2EBDD" stroke="#4F6237"/>
    <text x="640" y="475" text-anchor="middle" font-family="Microsoft YaHei" font-size="16" fill="#4F6237">stdin / stdout</text>
    <line x1="640" y1="446" x2="640" y2="492" stroke="#4F6237" stroke-width="3"/>
  </g>
  <g id="sidecars">
    <rect x="852" y="208" width="240" height="42" rx="8" fill="#F3E7DA" stroke="#8F482F"/>
    <text x="972" y="235" text-anchor="middle" font-family="Microsoft YaHei" font-size="17" fill="#8F482F">Adapter Sidecar</text>
    <rect x="852" y="370" width="240" height="42" rx="8" fill="#F4DAD4" stroke="#C9886B"/>
    <text x="972" y="397" text-anchor="middle" font-family="Microsoft YaHei" font-size="17" fill="#8F482F">Provider / Proxy</text>
    <rect x="852" y="532" width="240" height="42" rx="8" fill="#EEF1F5" stroke="#D8DEE6"/>
    <text x="972" y="559" text-anchor="middle" font-family="Microsoft YaHei" font-size="17" fill="#1D2329">MCP / Runtime</text>
  </g>
  <g id="footer">
    <text x="1144" y="676" font-family="Microsoft YaHei" font-size="16" fill="#667085">04 / 08</text>
  </g>
</svg>
