<svg xmlns="http://www.w3.org/2000/svg" width="1280" height="720" viewBox="0 0 1280 720">
  <rect width="1280" height="720" fill="#F7F8FA"/>
  <g id="header">
    <text x="72" y="86" font-family="Microsoft YaHei" font-size="38" font-weight="700" fill="#1D2329">多 Agent 与 Skills：可扩展的工作流引擎</text>
    <text x="72" y="122" font-family="Microsoft YaHei" font-size="18" fill="#667085">把复杂任务拆成可并行的执行单元，把经验沉淀成可复用的 Skill</text>
  </g>
  <g id="agent_flow">
    <rect x="82" y="180" width="250" height="92" rx="8" fill="#FFFFFF" stroke="#D8DEE6"/>
    <text x="207" y="218" text-anchor="middle" font-family="Microsoft YaHei" font-size="24" font-weight="700" fill="#1D2329">主 Agent</text>
    <text x="207" y="250" text-anchor="middle" font-family="Microsoft YaHei" font-size="17" fill="#667085">任务理解 / 调度</text>
    <rect x="410" y="160" width="228" height="86" rx="8" fill="#D9E8F6" stroke="#2D628F"/>
    <text x="524" y="194" text-anchor="middle" font-family="Microsoft YaHei" font-size="21" font-weight="700" fill="#183F5D">Subagent</text>
    <text x="524" y="224" text-anchor="middle" font-family="Microsoft YaHei" font-size="16" fill="#1D2329">独立上下文执行</text>
    <rect x="410" y="276" width="228" height="86" rx="8" fill="#F3E7DA" stroke="#8F482F"/>
    <text x="524" y="310" text-anchor="middle" font-family="Microsoft YaHei" font-size="21" font-weight="700" fill="#8F482F">Fork</text>
    <text x="524" y="340" text-anchor="middle" font-family="Microsoft YaHei" font-size="16" fill="#1D2329">继承上下文 / 缓存命中</text>
    <rect x="410" y="392" width="228" height="86" rx="8" fill="#E2EBDD" stroke="#4F6237"/>
    <text x="524" y="426" text-anchor="middle" font-family="Microsoft YaHei" font-size="21" font-weight="700" fill="#4F6237">Teams</text>
    <text x="524" y="456" text-anchor="middle" font-family="Microsoft YaHei" font-size="16" fill="#1D2329">邮箱通信 / 权限同步</text>
    <line x1="332" y1="226" x2="410" y2="203" stroke="#2D628F" stroke-width="3"/>
    <line x1="332" y1="226" x2="410" y2="319" stroke="#8F482F" stroke-width="3"/>
    <line x1="332" y1="226" x2="410" y2="435" stroke="#4F6237" stroke-width="3"/>
  </g>
  <g id="skills_panel">
    <rect x="724" y="166" width="474" height="330" rx="8" fill="#FFFFFF" stroke="#D8DEE6"/>
    <text x="762" y="212" font-family="Microsoft YaHei" font-size="28" font-weight="700" fill="#1D2329">Skills 系统</text>
    <text x="762" y="250" font-family="Microsoft YaHei" font-size="19" fill="#667085">用 Markdown 定义专门工作流，按场景自动进入专业模式。</text>
    <rect x="762" y="292" width="178" height="54" rx="8" fill="#D9E8F6"/>
    <text x="851" y="326" text-anchor="middle" font-family="Microsoft YaHei" font-size="17" fill="#183F5D">Bundled</text>
    <rect x="962" y="292" width="178" height="54" rx="8" fill="#F3E7DA"/>
    <text x="1051" y="326" text-anchor="middle" font-family="Microsoft YaHei" font-size="17" fill="#8F482F">Project</text>
    <rect x="762" y="366" width="178" height="54" rx="8" fill="#E2EBDD"/>
    <text x="851" y="400" text-anchor="middle" font-family="Microsoft YaHei" font-size="17" fill="#4F6237">Plugin</text>
    <rect x="962" y="366" width="178" height="54" rx="8" fill="#F4DAD4"/>
    <text x="1051" y="400" text-anchor="middle" font-family="Microsoft YaHei" font-size="17" fill="#8F482F">MCP</text>
    <text x="762" y="464" font-family="Microsoft YaHei" font-size="18" fill="#1D2329">能力沉淀：</text>
    <text x="860" y="464" font-family="Microsoft YaHei" font-size="18" fill="#667085">代码审查、调试、TDD、发布、上下文工程等。</text>
  </g>
  <g id="takeaway">
    <rect x="82" y="560" width="1116" height="62" rx="8" fill="#1D2329"/>
    <text x="122" y="600" font-family="Microsoft YaHei" font-size="21" font-weight="700" fill="#FFFFFF">关键能力：</text>
    <text x="232" y="600" font-family="Microsoft YaHei" font-size="21" fill="#FFFFFF">并行探索、后台执行、团队协作、流程复用、记忆整合和隔离改动。</text>
  </g>
  <g id="footer">
    <text x="1144" y="676" font-family="Microsoft YaHei" font-size="16" fill="#667085">05 / 08</text>
  </g>
</svg>
